<svg width="193" height="48" viewBox="0 0 193 48" fill="none" xmlns="http://www.w3.org/2000/svg">
<path d="M30.5 24C30.5 25.1867 30.1481 26.3467 29.4888 27.3334C28.8295 28.3201 27.8925 29.0892 26.7961 29.5433C25.6997 29.9974 24.4933 30.1162 23.3295 29.8847C22.1656 29.6532 21.0965 29.0818 20.2574 28.2426C19.4182 27.4035 18.8468 26.3344 18.6153 25.1705C18.3838 24.0067 18.5026 22.8003 18.9567 21.7039C19.4108 20.6075 20.1799 19.6705 21.1666 19.0112C22.1533 18.3519 23.3133 18 24.5 18C26.0907 18.0018 27.6158 18.6346 28.7406 19.7594C29.8654 20.8842 30.4982 22.4093 30.5 24ZM43.25 15.75V32.25C43.2468 35.0338 42.1396 37.7027 40.1711 39.6711C38.2027 41.6396 35.5338 42.7468 32.75 42.75H16.25C13.4662 42.7468 10.7973 41.6396 8.82889 39.6711C6.86044 37.7027 5.75318 35.0338 5.75 32.25V15.75C5.75318 12.9662 6.86044 10.2973 8.82889 8.32889C10.7973 6.36044 13.4662 5.25318 16.25 5.25H32.75C35.5338 5.25318 38.2027 6.36044 40.1711 8.32889C42.1396 10.2973 43.2468 12.9662 43.25 15.75ZM33.5 24C33.5 22.22 32.9722 20.4799 31.9832 18.9999C30.9943 17.5198 29.5887 16.3663 27.9442 15.6851C26.2996 15.0039 24.49 14.8257 22.7442 15.1729C20.9984 15.5202 19.3947 16.3774 18.136 17.636C16.8774 18.8947 16.0202 20.4984 15.6729 22.2442C15.3257 23.99 15.5039 25.7996 16.1851 27.4442C16.8663 29.0887 18.0198 30.4943 19.4999 31.4832C20.9799 32.4722 22.72 33 24.5 33C26.8861 32.9973 29.1738 32.0482 30.861 30.361C32.5482 28.6738 33.4973 26.3861 33.5 24ZM36.5 14.25C36.5 13.805 36.368 13.37 36.1208 13C35.8736 12.63 35.5222 12.3416 35.111 12.1713C34.6999 12.001 34.2475 11.9564 33.811 12.0432C33.3746 12.13 32.9737 12.3443 32.659 12.659C32.3443 12.9737 32.13 13.3746 32.0432 13.811C31.9564 14.2475 32.001 14.6999 32.1713 15.111C32.3416 15.5222 32.63 15.8736 33 16.1208C33.37 16.368 33.805 16.5 34.25 16.5C34.8467 16.5 35.419 16.2629 35.841 15.841C36.2629 15.419 36.5 14.8467 36.5 14.25Z" fill="#25282B"/>
<path d="M77.5 7.72175C77.5 6.21837 78.7492 5 80.2906 5H112.709C114.251 5 115.5 6.21837 115.5 7.72175V40.2783C115.5 41.7816 114.251 43 112.709 43H80.2906C78.7492 43 77.5 41.7816 77.5 40.2783V7.72175ZM89.2396 36.8108V19.6514H83.5373V36.8108H89.2396ZM86.3896 17.3073C88.3775 17.3073 89.6149 15.9915 89.6149 14.3433C89.5792 12.6594 88.3799 11.3793 86.4276 11.3793C84.4754 11.3793 83.2 12.6617 83.2 14.3433C83.2 15.9915 84.4374 17.3073 86.3516 17.3073H86.3896ZM98.0461 36.8108V27.2276C98.0461 26.7146 98.0841 26.2016 98.2361 25.8359C98.647 24.8123 99.5851 23.7506 101.162 23.7506C103.226 23.7506 104.05 25.3229 104.05 27.6314V36.8108H109.752V26.9688C109.752 21.6962 106.941 19.2453 103.188 19.2453C100.162 19.2453 98.8061 20.9078 98.0461 22.0786V22.138H98.0081C98.0207 22.1182 98.0334 22.0984 98.0461 22.0786V19.6514H92.3461C92.4174 21.2616 92.3461 36.8108 92.3461 36.8108H98.0461Z" fill="#25282B"/>
<path fill-rule="evenodd" clip-rule="evenodd" d="M147.631 12.1467C147.896 10.9686 148.546 9.91683 149.476 9.16349C150.406 8.41014 151.561 7.99992 152.75 8H184.25C185.439 7.99992 186.594 8.41014 187.524 9.16349C188.454 9.91683 189.104 10.9686 189.369 12.1467L168.5 25.104L147.631 12.1467ZM147.5 15.192V34.136L162.733 24.648L147.5 15.192ZM165.248 26.2133L148.001 36.952C148.427 37.8648 149.1 38.6358 149.941 39.1754C150.781 39.715 151.756 40.001 152.75 40H184.25C185.244 40.0002 186.218 39.7136 187.058 39.1736C187.899 38.6335 188.57 37.8622 188.996 36.9493L171.75 26.2107L168.5 28.2293L165.248 26.2107V26.2133ZM174.267 24.6507L189.5 34.136V15.192L174.267 24.648V24.6507Z" fill="#25282B"/>
</svg>
